<svg xmlns="http://www.w3.org/2000/svg" viewBox="0 0 496.06934 157.56522"><defs><style>.a{fill:#c0d8a4;}.b{fill:#231f20;}</style></defs><title>sadhanadventures-logo-color-lotus</title><path class="a" d="M305.9627,366.7592c3.70415,7.23816,7.5689,14.21692,10.91963,21.47476,4.78806,10.37118,8.23127,21.227,9.00649,32.95782.97747,14.79159-5.85322,26.95779-18.219,31.77743a5.53542,5.53542,0,0,1-3.62767.05188c-10.98705-3.92545-17.97881-14.2978-18.44784-27.16844-.33082-9.0779,1.61054-17.69355,4.4807-26.13338C292.7941,391.72373,302.267,371.88873,305.9627,366.7592Z" transform="translate(-66.39844 -317.21739)"/><path class="a" d="M254.19109,437.85035a51.08744,51.08744,0,0,1-20.12835-6.56723c-14.92-8.32131-24.45651-21.31954-28.77339-38.92318-1.78153-7.26478-4.41155-14.14935-9.34465-19.699-.3934-.44258-.82745-.843-1.24691-1.25789a2.65779,2.65779,0,0,1-.89074-1.59962c4.63656.82777,9.30242,1.49972,13.90332,2.51715,8.4539,1.86948,16.64923,4.68773,24.02217,9.64845,3.4108,2.29488,6.44488,5.25283,9.625,7.94457,1.71317,1.4501,2.13684,3.30621,1.90011,5.69158a72.64118,72.64118,0,0,0,1.83735,24.72447A38.14819,38.14819,0,0,0,254.19109,437.85035Z" transform="translate(-66.39844 -317.21739)"/><path class="a" d="M356.25345,437.98725c10.25287-11.50955,11.93854-25.5646,11.23538-40.14059-.22086-4.57842.95917-7.48171,3.99435-10.2648,8.00784-7.34272,17.38427-11.55609,27.38635-14.21942,5.90128-1.5714,11.94976-2.49259,17.93205-3.7062l.29808.693a49.40951,49.40951,0,0,0-3.58365,3.75285c-4.1683,5.34163-6.48746,11.69367-8.18052,18.33706-6.64081,26.05845-23.177,40.08086-46.87281,45.4253a6.91429,6.91429,0,0,1-1.05857.1191C357.12471,438.00225,356.84339,437.98725,356.25345,437.98725Z" transform="translate(-66.39844 -317.21739)"/><path class="a" d="M288.08052,448.7321c-10.33792,3.10461-23.60257-.29993-31.41-12.84917-6.58828-10.58964-8.71322-22.37254-8.04532-34.92379.13491-2.53527.33425-5.07828.2706-7.6108-.06093-2.424-.42547-4.839-.68218-7.52588a97.88534,97.88534,0,0,1,9.32972,4.01944,176.41508,176.41508,0,0,1,15.17894,9.19566c2.26683,1.56158,4.06525,4.03182,5.82417,6.318a8.97613,8.97613,0,0,1,1.62246,6.8838c-1.09388,9.09083-1.06463,18.19524,2.40355,26.76586C283.96647,442.4502,286.21208,445.48989,288.08052,448.7321Z" transform="translate(-66.39844 -317.21739)"/><path class="a" d="M362.91445,385.72288c-1.85838,5.252-1.06994,10.33486-.82306,15.357.60183,12.24228-1.40157,23.74269-7.66579,34.16219-6.86863,11.42479-18.97456,16.7808-31.279,13.76422a7.406,7.406,0,0,1-1.051-.45617c8.44692-8.88482,9.30069-20.11744,8.88236-31.74214-.07181-1.99526-.57-3.98624-.51834-5.96839a8.36148,8.36148,0,0,1,1.07666-4.30638,38.07279,38.07279,0,0,1,5.971-7.11183C344.96641,392.95841,353.70811,389.18261,362.91445,385.72288Z" transform="translate(-66.39844 -317.21739)"/><path class="a" d="M323.23692,388.997c-3.78653-13.99709-10.55067-25.6759-17.15525-38.05774-6.55128,12.2961-13.29846,24.05273-17.1747,37.922a31.55339,31.55339,0,0,1-2.90324-12.12049c-.48371-8.59712,1.23508-16.81358,3.763-24.8891,2.66883-8.52557,11.92682-28.21176,16.40127-34.6343,1.04879,1.88332,2.07016,3.66422,3.04419,5.47508,6.29919,11.71129,12.37166,23.539,15.29342,36.89233,1.9248,8.79685,2.78155,17.60628-.11228,26.385C324.13455,386.755,323.80649,387.51333,323.23692,388.997Z" transform="translate(-66.39844 -317.21739)"/><path class="a" d="M256.29642,335.98963a74.81916,74.81916,0,0,1,21.35533,12.69165,2.06721,2.06721,0,0,0,.16824.14175c3.79011,2.49381,5.4,5.05551,3.70241,10.62276-2.69539,8.83958-1.35991,18.13324.70347,27.13524.154.67164.34032,1.33446.501,2.0044a8.97106,8.97106,0,0,1,.058.93837c-.74363-1.06681-1.29207-1.78877-1.77634-2.55823-5.66921-9.008-12.76238-16.30061-21.81306-21.20316a4.50154,4.50154,0,0,1-2.40775-3.4749C255.1344,353.66237,255.50026,345.02687,256.29642,335.98963Z" transform="translate(-66.39844 -317.21739)"/><path class="a" d="M355.38322,336.3961c.80345,8.87759,1.22256,17.70152-.719,26.44375a3.81974,3.81974,0,0,1-1.41328,2.32923c-9.76263,5.35007-17.38952,13.21717-23.408,23.02361-.15672.25534-.261.54857-.724.53674.61562-3.64774,1.40069-7.27318,1.81179-10.94782.871-7.78572.89723-15.52478-1.94742-22.97085a2.05836,2.05836,0,0,1,.26487-1.73191c7.57162-7.37417,15.98978-13.25237,25.68282-16.82786C354.98564,336.23086,355.0653,336.29076,355.38322,336.3961Z" transform="translate(-66.39844 -317.21739)"/><path class="a" d="M241.14011,374.34913l1.49628,9.67488c-2.62317-2.03988-4.89246-3.83257-7.19058-5.5807a22.27815,22.27815,0,0,0-3.92283-2.758c-6.27425-2.86663-8.0741-8.59938-8.53395-15.23114-.10052-1.44953-.01471-2.91426-.01471-4.37209,12.8803.19845,44.73076,22.17134,53.90524,37.39862C265.77741,385.54972,254.36052,378.325,241.14011,374.34913Z" transform="translate(-66.39844 -317.21739)"/><path class="a" d="M369.98085,374.61069c-13.17148,4.00274-24.71513,11.20484-35.93322,19.17476,14.41431-18.58691,32.21811-31.42653,54.16638-37.84924.05705,4.88422-.11234,9.43932-2.07745,13.56412a12.5089,12.5089,0,0,1-3.585,4.35543c-4.49455,3.45047-9.15025,6.654-14.01172,10.146C369.015,380.90505,369.47139,377.93075,369.98085,374.61069Z" transform="translate(-66.39844 -317.21739)"/><path class="a" d="M291.31711,454.066c4.68416,10.52486,24.06091,11.38945,28.67276.32262a16.89433,16.89433,0,0,1,4.69623,10.092,4.62317,4.62317,0,0,1-1.15617,2.80682c-3.12646,4.17541-7.45269,5.98754-12.16276,6.88916-6.839,1.30913-13.43772.61026-19.55548-3.20948-5.3585-3.3457-6.17366-6.3-3.37527-12.22073A50.53626,50.53626,0,0,1,291.31711,454.066Z" transform="translate(-66.39844 -317.21739)"/><path class="a" d="M284.63527,456.13908c-16.3611,7.08937-33.032,9.66122-50.35916,4.40554.185-.23339.25354-.40822.34881-.42745,4.70558-.95009,8.11748-3.9161,11.15921-7.80044a21.56683,21.56683,0,0,1,9.49208-7.17382,2.56609,2.56609,0,0,1,3.4504,1.02563c4.55071,6.00884,10.83894,8.39924,17.69571,9.33047C279.142,455.86836,281.89658,455.93475,284.63527,456.13908Z" transform="translate(-66.39844 -317.21739)"/><path class="a" d="M377.71254,460.20277c-17.36954,5.68407-34.01793,2.90931-50.40757-4.07551,2.48088-.17212,4.97195-.243,7.44075-.53529,7.487-.8864,14.24751-3.39556,19.1764-10.10555a2.58017,2.58017,0,0,1,2.60522-.32675,44.83125,44.83125,0,0,1,7.874,5.33164C368.49853,454.27792,371.464,459.72766,377.71254,460.20277Z" transform="translate(-66.39844 -317.21739)"/><path class="a" d="M249.54616,441.43657c-9.73853,7.19907-28.6749,8.33741-46.14112-.49221.00055-.14641-.05819-.36374.00892-.42914,5.302-5.16571,11.26255-9.02355,18.31122-10.62786a2.78719,2.78719,0,0,1,2.10467.45742C233.53321,437.861,237.46826,439.59414,249.54616,441.43657Z" transform="translate(-66.39844 -317.21739)"/><path class="a" d="M362.25554,441.39705a42.46382,42.46382,0,0,0,19.39277-6.24163c2.19893-1.38368,4.21086-3.11425,6.33312-4.64582.4972-.35882,1.15187-.87254,1.64-.77292,7.37623,1.50531,13.51965,5.54347,19.15217,10.91589C394.58184,448.60784,374.21594,449.75015,362.25554,441.39705Z" transform="translate(-66.39844 -317.21739)"/><path class="a" d="M403.24273,415.41118a73.36907,73.36907,0,0,0,4.89747-6.25482,75.37973,75.37973,0,0,0,3.60645-7.26679c5.59406-.15387,11.34948.06048,16.77666,3.67363a31.491,31.491,0,0,1-16.81887,11.84023,3.39412,3.39412,0,0,1-1.62816-.24988C407.8056,416.58792,405.53982,415.99909,403.24273,415.41118Z" transform="translate(-66.39844 -317.21739)"/><path class="a" d="M183.47669,405.672c5.30833-3.84127,11.10135-3.81218,17.08121-3.8079a29.37986,29.37986,0,0,0,8.27808,13.39979c-6.59122,2.92678-11.22477,2.36759-17.76559-2.26869a44.30952,44.30952,0,0,1-4.67909-3.97276C185.3896,408.07771,184.554,406.92589,183.47669,405.672Z" transform="translate(-66.39844 -317.21739)"/><path class="a" d="M393.52519,427.256c1.97343-2.4378,4.03118-5.01061,6.1312-7.54214.33269-.401.85949-.88346,1.29094-.87714a26.66774,26.66774,0,0,1,18.90122,8.30552c-5.29379,1.572-10.57063,3.15176-15.8581,4.68855a2.42761,2.42761,0,0,1-1.62553.00625C399.23124,430.27318,396.13539,428.62024,393.52519,427.256Z" transform="translate(-66.39844 -317.21739)"/><path class="a" d="M191.9811,427.305c5.28767-5.22775,11.39062-8.28,18.602-8.433a2.49508,2.49508,0,0,1,1.74488.82758c2.11918,2.51806,4.14826,5.1253,6.23359,7.73306-1.48765.63405-3.71716,1.10584-5.40285,2.40653-3.11117,2.40061-5.97847,1.89252-9.3.65774C200.07435,429.09,196.07254,428.371,191.9811,427.305Z" transform="translate(-66.39844 -317.21739)"/><path class="b" d="M66.39844,459.33984l2.59082-3.78808c2.70508,2.39844,5.52637,4.04,9.26855,4.04,4.14551,0,6.16016-2.39844,6.16016-5.36524,0-3.53515-3.68457-5.05078-7.13867-6.502-4.376-1.76758-9.1543-4.10352-9.1543-9.91113,0-5.42871,4.03027-9.72168,10.82422-9.72168a15.08064,15.08064,0,0,1,9.67187,3.85058l-2.5332,3.72461c-2.13086-1.76758-4.31836-3.02929-7.08105-3.02929-3.97266,0-5.81543,2.27246-5.81543,4.92382,0,3.28223,3.22461,4.48145,6.73632,5.9336,4.54786,1.89355,9.55665,3.91308,9.55665,10.415,0,5.55566-4.03028,10.16308-11.39942,10.16308A17.90933,17.90933,0,0,1,66.39844,459.33984Z" transform="translate(-66.39844 -317.21739)"/><path class="b" d="M94.89746,454.35254c0-7.44922,5.92969-11.17285,19.22852-12.81445,0-4.41895-1.32422-8.64844-6.44727-8.64844-3.62695,0-6.90918,1.83105-9.38476,3.66113l-2.07227-3.97656c2.87891-2.02051,7.31152-4.48242,12.32031-4.48242,7.59961,0,10.82324,5.61816,10.82324,14.07715v21.084h-4.31738l-.46094-4.10254h-.17285c-2.99316,2.71387-6.50586,4.92285-10.3623,4.92285C98.8125,464.07324,94.89746,460.53906,94.89746,454.35254Zm19.22852.56836v-9.5957c-10.53516,1.38867-14.1045,4.22949-14.1045,8.64843,0,3.91407,2.418,5.49219,5.52637,5.49219C108.59961,459.46582,111.0752,457.8877,114.126,454.9209Z" transform="translate(-66.39844 -317.21739)"/><path class="b" d="M127.082,446.14648c0-11.11035,6.39063-18.05468,13.5293-18.05468,3.68457,0,6.04492,1.51562,8.80859,4.04l-.23047-5.9336V413.00488h5.18164v50.248h-4.25976l-.46094-4.04h-.17285c-2.47559,2.65137-5.75684,4.86035-9.499,4.86035C132.14844,464.07324,127.082,457.57227,127.082,446.14648Zm22.10742,8.39551V436.55078c-2.70605-2.58789-5.0664-3.59765-7.65722-3.59765-5.06543,0-9.03809,5.30273-9.03809,13.12988,0,8.26953,3.1084,13.19336,8.63574,13.19336C144.00781,459.27637,146.541,457.69824,149.18945,454.542Z" transform="translate(-66.39844 -317.21739)"/><path class="b" d="M165.02441,413.00488h5.23926V426.7666l-.17285,7.07031c2.87891-3.15625,6.10254-5.74511,10.36328-5.74511,6.56348,0,9.55664,4.67187,9.55664,13.44629v21.71484h-5.23926v-20.957c0-6.43945-1.78418-9.15332-5.92968-9.15332-3.22364,0-5.41114,1.76758-8.57813,5.23926v24.87109h-5.23926Z" transform="translate(-66.39844 -317.21739)"/><path class="b" d="M198.01563,454.35254c0-7.44922,5.92968-11.17285,19.22851-12.81445,0-4.41895-1.32422-8.64844-6.44726-8.64844-3.627,0-6.90918,1.83105-9.38477,3.66113l-2.07227-3.97656c2.87891-2.02051,7.31153-4.48242,12.32032-4.48242,7.59961,0,10.82324,5.61816,10.82324,14.07715v21.084H218.166l-.46094-4.10254h-.17285c-2.99317,2.71387-6.50586,4.92285-10.36231,4.92285C201.93066,464.07324,198.01563,460.53906,198.01563,454.35254Zm19.22851.56836v-9.5957c-10.53516,1.38867-14.10449,4.22949-14.10449,8.64843,0,3.91407,2.418,5.49219,5.52637,5.49219C211.71777,459.46582,214.19336,457.8877,217.24414,454.9209Z" transform="translate(-66.39844 -317.21739)"/><path class="b" d="M232.44531,428.97559h4.31836l.46094,4.92382h.17187c2.99415-3.21875,6.21778-5.80761,10.47852-5.80761,6.56348,0,9.55664,4.67187,9.55664,13.44629v21.71484h-5.23926v-20.957c0-6.43945-1.78418-9.15332-5.92968-9.15332-3.22364,0-5.41114,1.76758-8.57813,5.23926v24.87109h-5.23926Z" transform="translate(-66.39844 -317.21739)"/><path class="b" d="M265.667,454.35254c0-7.44922,5.92969-11.17285,19.22852-12.81445,0-4.41895-1.32422-8.64844-6.44727-8.64844-3.627,0-6.90918,1.83105-9.38476,3.66113l-2.07227-3.97656c2.87891-2.02051,7.31152-4.48242,12.32031-4.48242,7.59961,0,10.82325,5.61816,10.82325,14.07715v21.084h-4.31739l-.46093-4.10254h-.17286c-2.99316,2.71387-6.50586,4.92285-10.3623,4.92285C269.582,464.07324,265.667,460.53906,265.667,454.35254Zm19.22852.56836v-9.5957c-10.53516,1.38867-14.10449,4.22949-14.10449,8.64843,0,3.91407,2.418,5.49219,5.52636,5.49219C279.36914,459.46582,281.84473,457.8877,284.89551,454.9209Z" transform="translate(-66.39844 -317.21739)"/><path class="b" d="M297.85156,446.14648c0-11.11035,6.39063-18.05468,13.5293-18.05468,3.68457,0,6.04492,1.51562,8.80859,4.04l-.23047-5.9336V413.00488h5.18165v50.248h-4.25977l-.46094-4.04h-.17285c-2.47559,2.65137-5.75684,4.86035-9.499,4.86035C302.918,464.07324,297.85156,457.57227,297.85156,446.14648ZM319.959,454.542V436.55078c-2.70605-2.58789-5.0664-3.59765-7.65722-3.59765-5.06543,0-9.03809,5.30273-9.03809,13.12988,0,8.26953,3.1084,13.19336,8.63574,13.19336C314.77734,459.27637,317.31055,457.69824,319.959,454.542Z" transform="translate(-66.39844 -317.21739)"/><path class="b" d="M331.24609,428.97559h5.46973l5.87207,19.50586c.97852,3.3457,1.957,6.88085,2.93555,10.10058h.23047c.97851-3.21973,1.957-6.75488,2.8789-10.10058l5.92969-19.50586h5.18164l-11.11133,34.27734h-6.10254Z" transform="translate(-66.39844 -317.21739)"/><path class="b" d="M363.20117,446.14648c0-11.11035,6.85059-18.05468,14.10449-18.05468,7.94532,0,12.43555,6.3125,12.43555,16.09765a24.51346,24.51346,0,0,1-.23047,3.28223H368.43945c.34571,7.32227,4.4336,11.99414,10.36328,11.99414a12.6826,12.6826,0,0,0,7.83008-2.71484l1.89942,3.78808a17.50838,17.50838,0,0,1-10.36328,3.53418C369.87891,464.07324,363.20117,457.44531,363.20117,446.14648Zm21.93457-2.84082c0-6.88086-2.8789-10.60546-7.77246-10.60546-4.43262,0-8.34765,3.91406-8.98144,10.60546Z" transform="translate(-66.39844 -317.21739)"/><path class="b" d="M397.458,428.97559h4.31738l.46094,4.92382h.17285c2.99316-3.21875,6.21777-5.80761,10.47754-5.80761,6.56348,0,9.55664,4.67187,9.55664,13.44629v21.71484h-5.23828v-20.957c0-6.43945-1.78516-9.15332-5.93067-9.15332-3.22363,0-5.41113,1.76758-8.57812,5.23926v24.87109H397.458Z" transform="translate(-66.39844 -317.21739)"/><path class="b" d="M433.55762,452.64844v-19.001h-4.66309V429.292l4.89356-.3164.63281-9.65821h4.376v9.65821h8.46289v4.67187h-8.46289v19.12695c0,4.2295,1.209,6.62793,4.83593,6.62793a10.24986,10.24986,0,0,0,3.56934-.88379l1.03613,4.293a18.19047,18.19047,0,0,1-5.75683,1.26172C435.80273,464.07324,433.55762,459.46582,433.55762,452.64844Z" transform="translate(-66.39844 -317.21739)"/><path class="b" d="M453.93945,450.69141V428.97559h5.23926v21.02148c0,6.375,1.72656,9.08984,5.87207,9.08984,3.22363,0,5.46973-1.7041,8.46289-5.80761V428.97559h5.23926v34.27734h-4.376l-.40234-5.36523h-.17285c-2.93653,3.72363-6.04492,6.18554-10.36328,6.18554C456.876,464.07324,453.93945,459.40234,453.93945,450.69141Z" transform="translate(-66.39844 -317.21739)"/><path class="b" d="M489.291,428.97559h4.31738l.46094,6.25h.17285c2.1875-4.35547,5.35351-7.13379,8.86523-7.13379a6.176,6.176,0,0,1,3.33985.75781l-.97852,5.0498a6.82974,6.82974,0,0,0-3.05176-.56738c-2.59082,0-5.81445,2.01953-7.88769,7.89063v22.03027H489.291Z" transform="translate(-66.39844 -317.21739)"/><path class="b" d="M508.63672,446.14648c0-11.11035,6.85058-18.05468,14.10449-18.05468,7.94531,0,12.43555,6.3125,12.43555,16.09765a24.51513,24.51513,0,0,1-.23047,3.28223H513.875c.3457,7.32227,4.43359,11.99414,10.36328,11.99414a12.68262,12.68262,0,0,0,7.83008-2.71484l1.89941,3.78808a17.50836,17.50836,0,0,1-10.36328,3.53418C515.31445,464.07324,508.63672,457.44531,508.63672,446.14648Zm21.93457-2.84082c0-6.88086-2.87891-10.60546-7.77246-10.60546-4.43262,0-8.34766,3.91406-8.98145,10.60546Z" transform="translate(-66.39844 -317.21739)"/><path class="b" d="M539.38184,459.33984l2.58984-3.78808c2.70605,2.39844,5.52734,4.04,9.26953,4.04,4.14551,0,6.16016-2.39844,6.16016-5.36524,0-3.53515-3.68457-5.05078-7.13867-6.502-4.376-1.76758-9.1543-4.10352-9.1543-9.91113,0-5.42871,4.03027-9.72168,10.82324-9.72168a15.07854,15.07854,0,0,1,9.67188,3.85058l-2.53223,3.72461c-2.13086-1.76758-4.31836-3.02929-7.082-3.02929-3.97168,0-5.81446,2.27246-5.81446,4.92382,0,3.28223,3.22364,4.48145,6.73633,5.9336,4.54785,1.89355,9.55664,3.91308,9.55664,10.415,0,5.55566-4.03027,10.16308-11.39941,10.16308A17.90933,17.90933,0,0,1,539.38184,459.33984Z" transform="translate(-66.39844 -317.21739)"/></svg>